<svg width="30" height="30" viewBox="0 0 30 30" fill="none" xmlns="http://www.w3.org/2000/svg">
  <path d="M6 8C6 6.9 6.9 6 8 6H22C23.1 6 24 6.9 24 8V10C24 11.1 23.1 12 22 12H8C6.9 12 6 11.1 6 10V8Z" fill="none" stroke="currentColor" stroke-width="1.5"/>
  <path d="M8 12C8 12 6 14 6 16C6 18 8 20 8 20" fill="none" stroke="currentColor" stroke-width="1.5" stroke-linecap="round"/>
  <path d="M22 12C22 12 24 14 24 16C24 18 22 20 22 20" fill="none" stroke="currentColor" stroke-width="1.5" stroke-linecap="round"/>
  <circle cx="6" cy="20" r="2" fill="none" stroke="currentColor" stroke-width="1.5"/>
  <circle cx="24" cy="20" r="2" fill="none" stroke="currentColor" stroke-width="1.5"/>
</svg>