<svg width="30" height="30" viewBox="0 0 30 30" fill="none" xmlns="http://www.w3.org/2000/svg">
  <path d="M25 12C24.45 12 24 12.45 24 13V14C24 16.21 22.21 18 20 18C17.79 18 16 16.21 16 14V13C16 12.45 15.55 12 15 12C14.45 12 14 12.45 14 13V14C14 16.21 12.21 18 10 18C7.79 18 6 16.21 6 14V13C6 12.45 5.55 12 5 12C4.45 12 4 12.45 4 13V14C4 17.31 6.69 20 10 20C11.66 20 13.14 19.24 14.17 18.03C14.39 17.75 14.61 17.75 14.83 18.03C15.86 19.24 17.34 20 19 20H20C23.31 20 26 17.31 26 14V13C26 12.45 25.55 12 25 12Z" fill="currentColor"/>
  <path d="M3 10C3 9.45 3.45 9 4 9H26C26.55 9 27 9.45 27 10C27 10.55 26.55 11 26 11H4C3.45 11 3 10.55 3 10Z" fill="currentColor"/>
  <path d="M8 6L10 8M22 6L20 8" stroke="currentColor" stroke-width="1.5" stroke-linecap="round"/>
  <circle cx="15" cy="7" r="1" fill="currentColor"/>
</svg>